<?xml version="1.0" encoding="UTF-8"?>
<svg version="1.1" xmlns="http://www.w3.org/2000/svg" width="500" height="500">
<path d="M0 0 C165 0 330 0 500 0 C500 165 500 330 500 500 C335 500 170 500 0 500 C0 335 0 170 0 0 Z " fill="#FFFDF9" transform="translate(0,0)"/>
<path d="M0 0 C6.93 0 13.86 0 21 0 C21.33 2.31 21.66 4.62 22 7 C22.886875 6.21625 23.77375 5.4325 24.6875 4.625 C30.47253737 -0.48735861 36.71534767 -0.50400811 44.12890625 -0.3203125 C55.13306494 0.59022334 63.51645447 5.96208378 71.1015625 13.70703125 C79.01074957 23.25989712 80.01326377 34.09207997 79 46 C76.72329224 56.94120699 69.98490391 65.56354156 61 72 C52.02518922 76.95265478 41.30523932 79.10207741 31.2578125 76.2109375 C27.34726157 74.53132382 25.06178462 73.06178462 22 70 C21.67 81.88 21.34 93.76 21 106 C14.07 106 7.14 106 0 106 C0 71.02 0 36.04 0 0 Z " fill="#FF1B1B" transform="translate(187,198)"/>
<path d="M0 0 C13.34211562 -0.23707609 24.6711162 1.90500362 34.671875 11.26953125 C41.46320462 18.29863171 44.45703125 25.28871204 44.45703125 35.1171875 C37.52703125 35.1171875 30.59703125 35.1171875 23.45703125 35.1171875 C22.79703125 32.8071875 22.13703125 30.4971875 21.45703125 28.1171875 C19.04277757 25.11786399 16.11333676 23.335956 12.45703125 22.1171875 C9.37859283 21.84110291 6.29651323 21.83984852 3.20703125 21.8046875 C1.95599609 21.76118164 1.95599609 21.76118164 0.6796875 21.71679688 C-5.26135667 21.65617398 -8.63502251 22.75458109 -13.54296875 26.1171875 C-13.96068679 29.44918935 -13.96068679 29.44918935 -13.54296875 33.1171875 C-8.53702915 39.12431503 0.37421695 40.0264022 7.70703125 40.9921875 C20.65359366 42.88308708 31.35034326 47.20475258 40.1796875 57.03515625 C45.08027185 64.09254375 44.30956013 72.93773586 43.45703125 81.1171875 C41.70581867 88.04992908 36.42732297 93.51624129 30.54296875 97.37109375 C18.67329042 103.77882847 2.96738964 103.79987129 -10.03125 101.5 C-19.14455884 98.5193809 -27.92753244 92.52221485 -32.640625 84.07421875 C-32.93839844 83.42839844 -33.23617188 82.78257812 -33.54296875 82.1171875 C-33.91035156 81.3334375 -34.27773438 80.5496875 -34.65625 79.7421875 C-36.17827813 75.23644784 -35.65677666 70.84021586 -35.54296875 66.1171875 C-28.94296875 66.1171875 -22.34296875 66.1171875 -15.54296875 66.1171875 C-14.55296875 69.0871875 -13.56296875 72.0571875 -12.54296875 75.1171875 C-6.9989981 80.52593935 -2.68194185 80.35510163 4.70703125 80.4296875 C5.64933594 80.45869141 6.59164062 80.48769531 7.5625 80.51757812 C13.47523042 80.571481 17.04303206 80.21122629 21.45703125 76.1171875 C22.37369792 72.6171875 22.37369792 72.6171875 21.45703125 69.1171875 C16.31449453 62.73334881 6.19747585 62.15909722 -1.41796875 61.2421875 C-14.73200958 59.42133947 -24.38147399 54.67377864 -33.046875 44.3203125 C-37.1201415 37.90527258 -36.2636875 29.38443491 -35.54296875 22.1171875 C-34.74769236 18.89631811 -33.59897059 16.70471254 -31.54296875 14.1171875 C-31.00671875 13.43269531 -30.47046875 12.74820313 -29.91796875 12.04296875 C-23.81871608 5.16860272 -15.11585341 0.83110905 -5.8671875 0.171875 C-3.91116074 0.12585084 -1.95549875 0.06468022 0 0 Z " fill="#FF1B1B" transform="translate(309.54296875,172.8828125)"/>
<path d="M0 0 C21.45 0 42.9 0 65 0 C65 21 65 21 61.87890625 26.50512695 C59.81616211 28.56306458 59.81616211 28.56306458 57.5625 30.48828125 C56.80783447 31.21323288 56.05316895 31.93818451 55.27563477 32.68510437 C52.89559147 34.9492119 50.45350836 37.12850948 48 39.3125 C46.3572104 40.84973729 44.71913701 42.3920309 43.0859375 43.93945312 C39.11475364 47.69918956 35.06824097 51.33559177 31 55 C42.55 55.33 54.1 55.66 66 56 C66 62.93 66 69.86 66 77 C44.22 77 22.44 77 0 77 C0 56 0 56 3.12109375 50.49487305 C5.18383789 48.43693542 5.18383789 48.43693542 7.4375 46.51171875 C8.19216553 45.78676712 8.94683105 45.06181549 9.72436523 44.31489563 C12.10440853 42.0507881 14.54649164 39.87149052 17 37.6875 C18.6427896 36.15026271 20.28086299 34.6079691 21.9140625 33.06054688 C25.88524636 29.30081044 29.93175903 25.66440823 34 22 C22.78 21.67 11.56 21.34 0 21 C0 14.07 0 7.14 0 0 Z " fill="#FF1919" transform="translate(83,198)"/>
<path d="M0 0 C7.59 0 15.18 0 23 0 C27.49421028 8.98842057 27.49421028 8.98842057 29.32421875 13.55859375 C29.71287109 14.52087891 30.10152344 15.48316406 30.50195312 16.47460938 C30.89318359 17.45236328 31.28441406 18.43011719 31.6875 19.4375 C32.48078957 21.4162815 33.27624242 23.39419761 34.07421875 25.37109375 C34.42057373 26.23661865 34.76692871 27.10214355 35.1237793 27.99389648 C35.83635349 29.95800823 35.83635349 29.95800823 37 31 C37.32798584 30.09644775 37.65597168 29.19289551 37.99389648 28.26196289 C39.20804209 24.91946327 40.42584524 21.57830629 41.64477539 18.23754883 C42.17247265 16.78967237 42.69916861 15.34143057 43.22485352 13.89282227 C43.97932068 11.81430433 44.73734369 9.73711394 45.49609375 7.66015625 C45.73154404 7.00910416 45.96699432 6.35805206 46.20957947 5.68727112 C47.88612829 1.11387171 47.88612829 1.11387171 49 0 C50.70772358 -0.08713831 52.41898649 -0.10700007 54.12890625 -0.09765625 C55.68061523 -0.09282227 55.68061523 -0.09282227 57.26367188 -0.08789062 C58.35228516 -0.07951172 59.44089844 -0.07113281 60.5625 -0.0625 C62.2012207 -0.05573242 62.2012207 -0.05573242 63.87304688 -0.04882812 C66.58208759 -0.03699825 69.29100822 -0.01967721 72 0 C69.57671446 8.76157475 66.39910759 17.22199675 63.1953125 25.71875 C62.62851724 27.22744778 62.06185925 28.73619713 61.49533081 30.24499512 C60.31250177 33.39255441 59.12707356 36.53911988 57.93994141 39.68505859 C56.42896333 43.69023834 54.92599255 47.69836958 53.42515755 51.70735931 C52.2586866 54.8196984 51.0871889 57.93012779 49.91430283 61.04005432 C49.3584913 62.51599823 48.80436266 63.99257715 48.25204849 65.46983337 C42.19022927 81.66870622 36.71688122 95.42129888 20.22265625 103.33203125 C13.81206029 105.87648939 10.45557896 106 3 106 C3 99.07 3 92.14 3 85 C6.3 84.01 9.6 83.02 13 82 C19.16438263 79.03196392 20.70937435 75.09372182 23 69 C23.433125 68.113125 23.86625 67.22625 24.3125 66.3125 C26.05770432 60.44226728 22.74658207 54.57556392 20.4296875 49.26171875 C20.0703714 48.42268509 19.7110553 47.58365143 19.34085083 46.7191925 C18.19175702 44.03925125 17.03374063 41.36328241 15.875 38.6875 C14.37020887 35.19234513 12.86872641 31.69577181 11.3671875 28.19921875 C11.00042908 27.34649384 10.63367065 26.49376892 10.25579834 25.61520386 C7.77993193 19.8492816 5.34151259 14.06902273 2.9453125 8.26953125 C2.64567596 7.54690598 2.34603943 6.8242807 2.037323 6.07975769 C0 1.12233759 0 1.12233759 0 0 Z " fill="#FF1A1A" transform="translate(363,198)"/>
<path d="M0 0 C6.93 0 13.86 0 21 0 C21 25.41 21 50.82 21 77 C14.07 77 7.14 77 0 77 C0 51.59 0 26.18 0 0 Z " fill="#FF1A1A" transform="translate(157,198)"/>
<path d="M0 0 C5.7287763 2.0799313 9.09825646 5.66079189 12 11 C14.01418218 17.04254653 13.49620699 21.56231689 10.875 27.25 C7.91348738 32.72711567 4.93598268 35.02133911 -1 37 C-6.43591755 37.47848625 -11.33584001 37.73962666 -16.375 35.5 C-17.24125 34.675 -18.1075 33.85 -19 33 C-19.556875 32.47535156 -20.11375 31.95070312 -20.6875 31.41015625 C-24.45263598 27.28768097 -25.4469777 23.95091285 -25.625 18.375 C-25.31256148 12.22564183 -24.02727773 8.81876625 -19.46875 4.57421875 C-13.29625291 -0.79645887 -8.00440682 -0.82384538 0 0 Z " fill="#FFFBF7" transform="translate(234,218)"/>
<path d="M0 0 C6.93 0 13.86 0 21 0 C21 5.94 21 11.88 21 18 C14.07 18 7.14 18 0 18 C0 12.06 0 6.12 0 0 Z " fill="#FF2020" transform="translate(157,170)"/>
</svg>
